#!OML:ASF H:\Terrain\Walking\May29\JustinRory\Justin.ASF
:FULLY-SPECIFIED
:DEGREES
82
root 15.1593 17.5368 2.93015 -177.872 -5.97154 -178.422
lowerback 7.78895 5.5933 -1.90774
upperback 0.750107 7.16358 -1.01758
thorax -3.66694 3.54323 -0.769153
lowerneck -12.3283 -7.95137 -13.7664
upperneck 20.7851 -10.4989 7.66938
head 9.75896 -5.39493 3.55693
rclavicle -2.99668e-014 -2.0276e-014
rhumerus -6.67678 7.49582 -70.4491
rradius 58.9261
rwrist -20.1134
rhand -1.53981 23.5429
rfingers 7.12502
rthumb 24.1147 -4.9616
lclavicle -2.99668e-014 -2.0276e-014
lhumerus -31.6381 8.4364 75.0114
lradius 36.5829
lwrist -9.71311
lhand 3.75182 37.8632
lfingers 7.12502
lthumb 29.1787 65.5961
rfemur -17.9723 -10.2726 18.9785
rtibia 73.7543
rfoot 0.674336 -9.75184
rtoes 7.774
lfemur -23.8512 -1.7065 -22.4206
ltibia 37.2832
lfoot -11.5936 -3.23995
ltoes -3.78851
83
root 15.2008 17.5416 2.81517 -178.978 -5.42448 -179.423
lowerback 8.89191 5.96161 -3.6114
upperback 1.47246 7.41937 -0.759283
thorax -3.77998 3.6608 0.313032
lowerneck -13.8191 -8.13228 -14.2036
upperneck 21.3353 -10.4005 7.52842
head 10.2446 -5.3478 3.54243
rclavicle 8.26447e-014 -2.94201e-014
rhumerus -4.72716 7.69476 -69.0751
rradius 58.6951
rwrist -21.0052
rhand -2.5946 23.414
rfingers 7.12502
rthumb 23.103 -5.22094
lclavicle 8.26447e-014 -2.94201e-014
lhumerus -30.685 9.30597 75.707
lradius 37.1618
lwrist -9.86212
lhand 4.02777 37.7296
lfingers 7.12502
lthumb 29.4422 65.4165
rfemur -18.4022 -9.14452 17.7405
rtibia 74.1311
rfoot -0.619318 -10.4628
rtoes 8.87901
lfemur -21.9602 -0.641432 -23.4193
ltibia 37.2313
lfoot -11.9209 -3.84661
ltoes -0.79393
84
root 15.2214 17.5334 2.7035 -179.768 -5.92071 -180.28
lowerback 9.70445 6.11288 -4.65046
upperback 1.88159 7.44403 -0.637329
thorax -3.95152 3.66101 0.934796
lowerneck -14.1184 -8.34424 -14.5367
upperneck 21.4837 -10.5601 7.45396
head 10.3922 -5.44382 3.53248
rclavicle 1.10822e-013 -3.26007e-014
rhumerus -3.38457 7.5583 -67.7475
rradius 58.3244
rwrist -21.8188
rhand -2.9517 23.7296
rfingers 7.12502
rthumb 22.7603 -4.94778
lclavicle 1.10822e-013 -3.26007e-014
lhumerus -30.0201 9.41742 76.443
lradius 37.6729
lwrist -9.85125
lhand 3.62863 37.6417
lfingers 7.12502
lthumb 29.0611 65.395
rfemur -19.0068 -8.9266 16.6104
rtibia 74.2442
rfoot -2.09266 -10.962
rtoes 11.3693
lfemur -20.5326 -0.568819 -24.2861
ltibia 37.1889
lfoot -11.9604 -4.43316
ltoes -1.58006
85
root 15.2392 17.5208 2.59996 -180.301 -6.76349 -180.468
lowerback 10.366 6.16914 -4.69981
upperback 2.02556 7.4587 -0.591542
thorax -4.17901 3.65889 0.945339
lowerneck -13.8904 -8.57959 -14.6528
upperneck 21.5837 -10.9684 7.60356
head 10.4526 -5.63591 3.54536
rclavicle -4.28878e-014 -8.74653e-015
rhumerus -2.73686 6.88507 -66.7377
rradius 58.2898
rwrist -22.884
rhand -2.8358 24.0887
rfingers 7.12502
rthumb 22.8715 -4.57502
lclavicle -4.28878e-014 -8.74653e-015
lhumerus -29.5987 8.74268 76.9942
lradius 38.4283
lwrist -9.41197
lhand 2.76633 37.5153
lfingers 7.12502
lthumb 28.2372 65.4077
rfemur -19.9188 -8.8905 16.3232
rtibia 74.0514
rfoot -3.49158 -11.3511
rtoes 13.0785
lfemur -19.5993 -0.696904 -24.4262
ltibia 37.1838
lfoot -12.0177 -5.42923
ltoes -0.411661
86
root 15.2466 17.5146 2.49425 -180.529 -8.36361 -180.432
lowerback 10.7909 5.90779 -4.23354
upperback 2.0457 7.13482 -0.617313
thorax -4.31337 3.49168 0.675468
lowerneck -13.5979 -8.82906 -14.7789
upperneck 21.7318 -11.4419 7.84211
head 10.5338 -5.8545 3.58299
rclavicle -5.78463e-014 1.09332e-014
rhumerus -2.38947 5.99 -65.9151
rradius 58.3702
rwrist -24.3823
rhand -5.18175 24.1692
rfingers 7.12502
rthumb 20.6188 -4.75568
lclavicle -5.78463e-014 1.09332e-014
lhumerus -29.2304 7.82768 77.4688
lradius 39.2849
lwrist -8.53632
lhand 2.26025 37.3614
lfingers 7.12502
lthumb 27.7535 65.3327
rfemur -20.9276 -9.46805 16.2589
rtibia 73.5002
rfoot -4.55269 -11.6435
rtoes 14.5171
lfemur -19.1754 -1.39012 -24.3849
ltibia 37.3247
lfoot -12.1783 -6.55023
ltoes 1.72815
87
root 15.2663 17.5367 2.34988 -179.895 -11.3106 -180.182
lowerback 9.90557 5.16897 -3.83368
upperback 1.90446 6.28454 -0.508155
thorax -3.89932 3.0847 0.775809
lowerneck -13.05 -9.04255 -14.9216
upperneck 21.5821 -11.8465 8.0128
head 10.4485 -6.05042 3.61984
rclavicle -3.00662e-014 2.70347e-014
rhumerus -2.00919 4.8764 -65.0742
rradius 58.1562
rwrist -25.878
rhand -5.86792 24.5736
rfingers 7.12502
rthumb 19.9593 -4.42136
lclavicle -3.00662e-014 2.70347e-014
lhumerus -28.8519 6.97647 78.0354
lradius 40.0285
lwrist -7.78281
lhand 2.46798 37.4407
lfingers 7.12502
lthumb 27.9521 65.3798
rfemur -22.236 -11.0438 16.6755
rtibia 72.5361
rfoot -5.78558 -11.9252
rtoes 15.5515
lfemur -19.6191 -2.9828 -23.9989
ltibia 37.5539
lfoot -12.3848 -7.97645
ltoes 1.26686
